<svg width="1142" height="1219" viewBox="0 0 1142 1219" fill="none" xmlns="http://www.w3.org/2000/svg">
<rect x="546" y="744.415" width="50" height="388" fill="#7C3AED"/>
<rect x="571" y="767.415" width="50" height="458" transform="rotate(-90 571 767.415)" fill="#7C3AED"/>
<rect x="113" y="767.415" width="50" height="458" transform="rotate(-90 113 767.415)" fill="#7C3AED"/>
<rect x="546" y="354.415" width="50" height="388" fill="#7C3AED"/>
<circle cx="571" cy="744.415" r="200" fill="url(#paint0_linear_12_123)"/>
<g filter="url(#filter0_d_12_123)">
<path d="M571 40.4145L1043.85 313.415V859.415L571 1132.41L98.1501 859.415V313.415L571 40.4145Z" stroke="url(#paint1_linear_12_123)" stroke-width="70" shape-rendering="crispEdges"/>
</g>
<rect x="474" y="1018.41" width="200" height="200" fill="url(#paint2_radial_12_123)" fill-opacity="0.36"/>
<circle cx="574" cy="1118.41" r="75" fill="url(#paint3_linear_12_123)"/>
<rect y="644.415" width="200" height="200" fill="url(#paint4_radial_12_123)" fill-opacity="0.36"/>
<circle cx="100" cy="744.415" r="75" fill="url(#paint5_linear_12_123)"/>
<rect x="942" y="642.415" width="200" height="200" fill="url(#paint6_radial_12_123)" fill-opacity="0.36"/>
<circle cx="1042" cy="742.415" r="75" fill="url(#paint7_linear_12_123)"/>
<rect x="471" y="254.415" width="200" height="200" fill="url(#paint8_radial_12_123)" fill-opacity="0.36"/>
<circle cx="571" cy="354.415" r="75" fill="url(#paint9_linear_12_123)"/>
<rect width="30" height="150" transform="matrix(-0.694658 0.71934 0.71934 0.694658 366.571 847.695)" fill="#2A1254"/>
<rect width="30" height="150" transform="matrix(-0.694658 0.71934 0.71934 0.694658 690.571 516.695)" fill="#2A1254"/>
<rect width="30" height="150" transform="matrix(-0.694658 -0.71934 -0.71934 0.694658 470.741 537.995)" fill="#2A1254"/>
<rect width="30" height="150" transform="matrix(-0.694658 -0.71934 -0.71934 0.694658 796.741 868.995)" fill="#2A1254"/>
<defs>
<filter id="filter0_d_12_123" x="59.1501" y="0" width="1023.7" height="1180.83" filterUnits="userSpaceOnUse" color-interpolation-filters="sRGB">
<feFlood flood-opacity="0" result="BackgroundImageFix"/>
<feColorMatrix in="SourceAlpha" type="matrix" values="0 0 0 0 0 0 0 0 0 0 0 0 0 0 0 0 0 0 127 0" result="hardAlpha"/>
<feOffset dy="4"/>
<feGaussianBlur stdDeviation="2"/>
<feComposite in2="hardAlpha" operator="out"/>
<feColorMatrix type="matrix" values="0 0 0 0 0 0 0 0 0 0 0 0 0 0 0 0 0 0 0.25 0"/>
<feBlend mode="normal" in2="BackgroundImageFix" result="effect1_dropShadow_12_123"/>
<feBlend mode="normal" in="SourceGraphic" in2="effect1_dropShadow_12_123" result="shape"/>
</filter>
<linearGradient id="paint0_linear_12_123" x1="496.714" y1="572.415" x2="651.571" y2="912.415" gradientUnits="userSpaceOnUse">
<stop stop-color="#7C3AED"/>
<stop offset="1" stop-color="#A78BFA"/>
</linearGradient>
<linearGradient id="paint1_linear_12_123" x1="372.5" y1="435.415" x2="1028" y2="1132.41" gradientUnits="userSpaceOnUse">
<stop offset="0.0192308" stop-color="#7C3AED"/>
<stop offset="1" stop-color="#A78BFA"/>
</linearGradient>
<radialGradient id="paint2_radial_12_123" cx="0" cy="0" r="1" gradientUnits="userSpaceOnUse" gradientTransform="translate(574 1118.41) rotate(19.4861) scale(85.1225)">
<stop stop-color="white"/>
<stop offset="1" stop-color="#A78BFA"/>
</radialGradient>
<linearGradient id="paint3_linear_12_123" x1="553.75" y1="1107.91" x2="546.25" y2="1067.41" gradientUnits="userSpaceOnUse">
<stop stop-color="#A78BFA"/>
<stop offset="1" stop-color="#A994E8"/>
</linearGradient>
<radialGradient id="paint4_radial_12_123" cx="0" cy="0" r="1" gradientUnits="userSpaceOnUse" gradientTransform="translate(100 744.415) rotate(19.4861) scale(85.1225)">
<stop stop-color="white"/>
<stop offset="1" stop-color="#A78BFA"/>
</radialGradient>
<linearGradient id="paint5_linear_12_123" x1="79.75" y1="733.915" x2="72.25" y2="693.415" gradientUnits="userSpaceOnUse">
<stop stop-color="#A78BFA"/>
<stop offset="1" stop-color="#A994E8"/>
</linearGradient>
<radialGradient id="paint6_radial_12_123" cx="0" cy="0" r="1" gradientUnits="userSpaceOnUse" gradientTransform="translate(1042 742.415) rotate(19.4861) scale(85.1225)">
<stop stop-color="white"/>
<stop offset="1" stop-color="#A78BFA"/>
</radialGradient>
<linearGradient id="paint7_linear_12_123" x1="1021.75" y1="731.915" x2="1014.25" y2="691.415" gradientUnits="userSpaceOnUse">
<stop stop-color="#A78BFA"/>
<stop offset="1" stop-color="#A994E8"/>
</linearGradient>
<radialGradient id="paint8_radial_12_123" cx="0" cy="0" r="1" gradientUnits="userSpaceOnUse" gradientTransform="translate(571 354.415) rotate(19.4861) scale(85.1225)">
<stop stop-color="white"/>
<stop offset="1" stop-color="#A78BFA"/>
</radialGradient>
<linearGradient id="paint9_linear_12_123" x1="550.75" y1="343.915" x2="543.25" y2="303.415" gradientUnits="userSpaceOnUse">
<stop stop-color="#A78BFA"/>
<stop offset="1" stop-color="#A994E8"/>
</linearGradient>
</defs>
</svg>
